<mxfile
  host="Electron" 
  agent="Mozilla/5.0 (Macintosh; Intel Mac OS X 10_15_7) AppleWebKit/537.36 (KHTML, like Gecko) draw.io/25.0.2 Chrome/128.0.6613.186 Electron/32.2.5 Safari/537.36" 
  version="25.0.2"
  >
  <diagram
    name="-"
    >
    <mxGraphModel
      grid="1" 
      gridSize="10" 
      guides="1" 
      tooltips="1" 
      connect="1" 
      arrows="1" 
      fold="1" 
      page="1" 
      pageScale="1" 
      pageWidth="1" 
      pageHeight="1" 
      math="0" 
      shadow="0"
      >
      <root>
        <mxCell
          id="page"
          />
        <mxCell
          id="root" 
          parent="page"
          />
        <mxCell
          style="verticalAlign=top;aspect=fixed;align=center;spacingLeft=5;spacingRight=5;spacingBottom=5;strokeColor=none;" 
          id="shape_" 
          parent="root" 
          value=" " 
          vertex="1"
          >
          <mxGeometry
            as="geometry" 
            width="88" 
            height="84.5" 
            x="0" 
            y="0"
            />
          </mxCell>
        <mxCell
          style="rounded=1;whiteSpace=wrap;verticalAlign=top;align=center;shape=image;verticalLabelPosition=bottom;labelBackgroundColor=default;aspect=fixed;imageAspect=0;editableCssRules=.*;image=data:image/svg+xml,PHN2ZyB4bWxuczp4bGluaz0iaHR0cDovL3d3dy53My5vcmcvMTk5OS94bGluayIgeG1sbnM9Imh0dHA6Ly93d3cudzMub3JnLzIwMDAvc3ZnIiB2aWV3Qm94PSIyLjk4MDIzMjIzODc2OTUzMTJlLTggLTIuOTgwMjMyMjM4NzY5NTMxMmUtOCAyNCAyMC45OTk5OTgwOTI2NTEzNjciIHZlcnNpb249IjEuMSIgaWQ9IkxheWVyXzEiIHdpZHRoPSIyNCIgaGVpZ2h0PSIyMC45OTk5OTgwOTI2NTEzNjciPiYjeGE7ICA8c3R5bGUgdHlwZT0idGV4dC9jc3MiPi5zdDAgeyBzdG9wLWNvbG9yOiByZ2IoOTEsIDExNSwgMTM5KTsgfSAuc3QxIHsgc3RvcC1jb2xvcjogcmdiKDM0LCA1MywgNzIpOyB9IDwvc3R5bGU+JiN4YTsgIDxkZWZzPiYjeGE7ICAgIDxsaW5lYXJHcmFkaWVudCBpZD0iQSIgeDE9IjAiIHkxPSIwIiB4Mj0iMjQiIHkyPSIyMSIgZ3JhZGllbnRVbml0cz0idXNlclNwYWNlT25Vc2UiPiYjeGE7ICAgICAgPHN0b3AgY2xhc3M9InN0MCIvPiYjeGE7ICAgICAgPHN0b3Agb2Zmc2V0PSIxIiBjbGFzcz0ic3QxIi8+JiN4YTsgICAgPC9saW5lYXJHcmFkaWVudD4mI3hhOyAgPC9kZWZzPiYjeGE7ICA8cGF0aCBmaWxsPSJ1cmwoI0EpIiBkPSJNMjIuNzgsMTVjLjM0LDAsLjYyLjEyLjg0LjM4LjI1LjIyLjM4LjUuMzguODR2My41NmMwLC4zNC0uMTIuNjQtLjM4Ljg5LS4yMi4yMi0uNS4zMy0uODQuMzNoLTMuNTZjLS4zNCwwLS42NC0uMTEtLjg5LS4zMy0uMjItLjI1LS4zMy0uNTUtLjMzLS44OXYtMy41NmMwLS4zNC4xMS0uNjIuMzMtLjg0LjI1LS4yNS41NS0uMzguODktLjM4aC44OXYtMS43OGMwLS4yMi0uMTEtLjMzLS4zMy0uMzNoLTYuNTZ2Mi4xMWguNTZjLjM0LDAsLjYyLjEyLjg0LjM4LjI1LjIyLjM4LjUuMzguODR2My41NmMwLC4zNC0uMTIuNjQtLjM4Ljg5LS4yMi4yMi0uNS4zMy0uODQuMzNoLTMuNTZjLS4zNCwwLS42NC0uMTEtLjg5LS4zMy0uMjItLjI1LS4zMy0uNTUtLjMzLS44OXYtMy41NmMwLS4zNC4xMS0uNjIuMzMtLjg0LjI1LS4yNS41NS0uMzguODktLjM4aC41NnYtMi4xMWgtNi41NmMtLjIyLDAtLjMzLjExLS4zMy4zM3YxLjc4aC44OWMuMzQsMCwuNjIuMTIuODQuMzguMjUuMjIuMzguNS4zOC44NHYzLjU2YzAsLjM0LS4xMi42NC0uMzguODktLjIyLjIyLS41LjMzLS44NC4zM0gxLjIyYy0uMzQsMC0uNjQtLjExLS44OS0uMzMtLjIyLS4yNS0uMzMtLjU1LS4zMy0uODl2LTMuNTZjMC0uMzQuMTEtLjYyLjMzLS44NC4yNS0uMjUuNTUtLjM4Ljg5LS4zOGguMjh2LTEuNzhjMC0uNzUuMjctMS4zOS44LTEuOTIuNTMtLjUzLDEuMTctLjgsMS45Mi0uOGg2LjU2di0zaC0zLjU2Yy0uMzQsMC0uNjQtLjExLS44OS0uMzMtLjIyLS4yNS0uMzMtLjU1LS4zMy0uODlWMS4yMmMwLS4zNC4xMS0uNjIuMzMtLjg0LjI1LS4yNS41NS0uMzguODktLjM4aDkuNTZjLjM0LDAsLjYyLjEyLjg0LjM4LjI1LjIyLjM4LjUuMzguODR2NS4wNmMwLC4zNC0uMTIuNjQtLjM4Ljg5LS4yMi4yMi0uNS4zMy0uODQuMzNoLTMuNTZ2M2g2LjU2Yy43NSwwLDEuMzkuMjcsMS45Mi44LjUzLjUzLjgsMS4xNy44LDEuOTJ2MS43OGguMjhaTTguMzksNS4xMWg3LjIydi0yLjcyaC03LjIydjIuNzJaTTMuNjEsMTcuMzloLTEuMjJ2MS4yMmgxLjIydi0xLjIyWk0xMi42MSwxNy4zOWgtMS4yMnYxLjIyaDEuMjJ2LTEuMjJaTTIxLjYxLDE3LjM5aC0xLjIydjEuMjJoMS4yMnYtMS4yMloiLz4mI3hhOzwvc3ZnPg;strokeColor=none;" 
          id="tree_non_sap_" 
          parent="shape_" 
          value=" " 
          vertex="1"
          >
          <mxGeometry
            width="28" 
            height="24.5" 
            as="geometry" 
            x="30" 
            y="30"
            />
          </mxCell>
        </root>
      </mxGraphModel>
    </diagram>
  </mxfile>